HIERARCHY
ROOT hip
{
  OFFSET 0 0 0
  CHANNELS 6 Xposition Yposition Zposition Zrotation Yrotation Xrotation
  JOINT abdomen
  {
    OFFSET 0 20.6881 -0.73152
    CHANNELS 3 Zrotation Xrotation Yrotation
    JOINT chest
    {
      OFFSET 0 11.7043 -0.48768
      CHANNELS 3 Zrotation Xrotation Yrotation
      JOINT neck
      {
        OFFSET 0 22.1894 -2.19456
        CHANNELS 3 Zrotation Xrotation Yrotation
        JOINT head
        {
          OFFSET -0.24384 7.07133 1.2192
          CHANNELS 3 Zrotation Xrotation Yrotation
          JOINT leftEye
          {
            OFFSET 4.14528 8.04674 8.04672
            CHANNELS 3 Zrotation Xrotation Yrotation
            End Site
            {
              OFFSET 1 0 0
            }
          }
          JOINT rightEye
          {
            OFFSET -3.6576 8.04674 8.04672
            CHANNELS 3 Zrotation Xrotation Yrotation
            End Site
            {
              OFFSET 1 0 0
            }
          }
        }
      }
      JOINT rCollar
      {
        OFFSET -2.68224 19.2634 -4.8768
        CHANNELS 3 Zrotation Xrotation Yrotation
        JOINT rShldr
        {
          OFFSET -8.77824 -1.95073 1.46304
          CHANNELS 3 Zrotation Xrotation Yrotation
          JOINT rForeArm
          {
            OFFSET -28.1742 -1.7115 0.48768
            CHANNELS 3 Zrotation Xrotation Yrotation
            JOINT rHand
            {
              OFFSET -22.5879 0.773209 7.07136
              CHANNELS 3 Zrotation Xrotation Yrotation
              JOINT rThumb1
              {
                OFFSET -1.2192 -0.487915 3.41376
                CHANNELS 3 Zrotation Xrotation Yrotation
                JOINT rThumb2
                {
                  OFFSET -3.37035 -0.52449 3.41376
                  CHANNELS 3 Zrotation Xrotation Yrotation
                  End Site
                  {
                    OFFSET -1.78271 -1.18214 1.43049
                  }
                }
              }
              JOINT rIndex1
              {
                OFFSET -7.75947 0.938293 5.60832
                CHANNELS 3 Zrotation Xrotation Yrotation
                JOINT rIndex2
                {
                  OFFSET -2.54057 -0.884171 1.56538
                  CHANNELS 3 Zrotation Xrotation Yrotation
                  End Site
                  {
                    OFFSET -1.62519 -0.234802 1.16502
                  }
                }
              }
              JOINT rMid1
              {
                OFFSET -8.24714 1.18213 3.41376
                CHANNELS 3 Zrotation Xrotation Yrotation
                JOINT rMid2
                {
                  OFFSET -3.10165 -0.590103 1.0647
                  CHANNELS 3 Zrotation Xrotation Yrotation
                  End Site
                  {
                    OFFSET -2.48547 -0.328903 0.83742
                  }
                }
              }
              JOINT rRing1
              {
                OFFSET -8.82822 0.546677 1.51678
                CHANNELS 3 Zrotation Xrotation Yrotation
                JOINT rRing2
                {
                  OFFSET -2.60934 -0.819778 -0.0198488
                  CHANNELS 3 Zrotation Xrotation Yrotation
                  End Site
                  {
                    OFFSET -2.33842 -0.294052 0.168128
                  }
                }
              }
              JOINT rPinky1
              {
                OFFSET -8.27202 -0.0477905 -0.4584
                CHANNELS 3 Zrotation Xrotation Yrotation
                JOINT rPinky2
                {
                  OFFSET -1.82734 -0.647385 -0.700984
                  CHANNELS 3 Zrotation Xrotation Yrotation
                  End Site
                  {
                    OFFSET -1.69225 -0.51767 -0.607171
                  }
                }
              }
            }
          }
        }
      }
      JOINT lCollar
      {
        OFFSET 2.68224 19.2634 -4.8768
        CHANNELS 3 Zrotation Xrotation Yrotation
        JOINT lShldr
        {
          OFFSET 8.77824 -1.95073 1.46304
          CHANNELS 3 Zrotation Xrotation Yrotation
          JOINT lForeArm
          {
            OFFSET 28.1742 -1.7115 0.48768
            CHANNELS 3 Zrotation Xrotation Yrotation
            JOINT lHand
            {
              OFFSET 22.5879 0.773209 7.07136
              CHANNELS 3 Zrotation Xrotation Yrotation
              JOINT lThumb1
              {
                OFFSET 1.2192 -0.487915 3.41376
                CHANNELS 3 Zrotation Xrotation Yrotation
                JOINT lThumb2
                {
                  OFFSET 3.37035 -0.52449 3.41376
                  CHANNELS 3 Zrotation Xrotation Yrotation
                  End Site
                  {
                    OFFSET 1.78271 -1.18214 1.43049
                  }
                }
              }
              JOINT lIndex1
              {
                OFFSET 7.75947 0.938293 5.60832
                CHANNELS 3 Zrotation Xrotation Yrotation
                JOINT lIndex2
                {
                  OFFSET 2.54057 -0.884171 1.56538
                  CHANNELS 3 Zrotation Xrotation Yrotation
                  End Site
                  {
                    OFFSET 1.62519 -0.234802 1.16502
                  }
                }
              }
              JOINT lMid1
              {
                OFFSET 8.24714 1.18213 3.41376
                CHANNELS 3 Zrotation Xrotation Yrotation
                JOINT lMid2
                {
                  OFFSET 3.10165 -0.590103 1.0647
                  CHANNELS 3 Zrotation Xrotation Yrotation
                  End Site
                  {
                    OFFSET 2.48547 -0.328903 0.83742
                  }
                }
              }
              JOINT lRing1
              {
                OFFSET 8.82822 0.546677 1.51678
                CHANNELS 3 Zrotation Xrotation Yrotation
                JOINT lRing2
                {
                  OFFSET 2.60934 -0.819778 -0.0198488
                  CHANNELS 3 Zrotation Xrotation Yrotation
                  End Site
                  {
                    OFFSET 2.33842 -0.294052 0.168128
                  }
                }
              }
              JOINT lPinky1
              {
                OFFSET 8.27202 -0.0477905 -0.4584
                CHANNELS 3 Zrotation Xrotation Yrotation
                JOINT lPinky2
                {
                  OFFSET 1.82734 -0.647385 -0.700984
                  CHANNELS 3 Zrotation Xrotation Yrotation
                  End Site
                  {
                    OFFSET 1.69225 -0.51767 -0.607171
                  }
                }
              }
            }
          }
        }
      }
    }
  }
  JOINT rButtock
  {
    OFFSET -8.77824 4.35084 1.2192
    CHANNELS 3 Zrotation Xrotation Yrotation
    JOINT rThigh
    {
      OFFSET 0 -1.70687 -2.19456
      CHANNELS 3 Zrotation Xrotation Yrotation
      JOINT rShin
      {
        OFFSET 0 -36.8199 0.73152
        CHANNELS 3 Zrotation Xrotation Yrotation
        JOINT rFoot
        {
          OFFSET 0.73152 -45.1104 -5.12064
          CHANNELS 3 Zrotation Xrotation Yrotation
          End Site
          {
            OFFSET -1.1221 -3.69964 12.103
          }
        }
      }
    }
  }
  JOINT lButtock
  {
    OFFSET 8.77824 4.35084 1.2192
    CHANNELS 3 Zrotation Xrotation Yrotation
    JOINT lThigh
    {
      OFFSET 0 -1.70687 -2.19456
      CHANNELS 3 Zrotation Xrotation Yrotation
      JOINT lShin
      {
        OFFSET 0 -36.8199 0.73152
        CHANNELS 3 Zrotation Xrotation Yrotation
        JOINT lFoot
        {
          OFFSET -0.73152 -45.1104 -5.12064
          CHANNELS 3 Zrotation Xrotation Yrotation
          End Site
          {
            OFFSET 1.1221 -3.69964 12.103
          }
        }
      }
    }
  }
}
MOTION
Frames:	6
Frame Time:	0.00833333
6.4738774 67.311646 -31.717144 5.149332 13.526211 6.135422 -6.0976777 21.618979 1.072678 3.915267 -12.536692 0.44923982 -5.9858885 17.897518 -6.7085238 9.244381 -40.917408 -10.381553 -0.01530747 0.05837225 0.042921092 -0.11632121 0.06078255 0.0066741398 -0.017754408 0.02855288 -0.13215658 42.17232 7.0627804 35.20402 -25.103703 -21.574913 53.476513 -1.5540644 28.89558 4.166171 0.011621525 0.0047531156 -0.0047367895 -0.087676175 0.017514592 0.07252398 0.007350495 0.07614599 0.018708998 7.786364 5.4431477 0.36771742 -0.02762352 -0.08369684 0.054469157 2.9799259 0.93555015 0.13042389 0.016217023 0.020298392 -0.123352356 10.249414 0.6536224 0.0923095 -0.019413209 -0.06732518 -0.0051777214 2.3378139 -0.70251995 -0.23226246 0.0062270015 -0.060449146 0.014912155 -30.967607 59.06902 -63.380062 28.396326 -33.054775 -71.92066 35.40865 -79.62363 46.274563 0.035713173 0.0421637 -0.034290753 0.098556794 -0.0046665496 -0.006065808 -0.019641781 -0.137845 0.087676674 -7.805138 5.4738145 -0.38491943 0.08114735 -0.038164932 0.06472383 -2.9278321 0.944923 -0.082104586 0.042679716 -0.04360668 -0.03785538 -10.274606 0.67050827 -0.09885268 -0.045754116 -0.096512064 0.0914036 -2.2397585 -0.7373621 0.2206697 0.06790183 -0.02644739 0.059873916 -20.393589 -63.550457 0.49097672 -0.10985934 40.679363 0.3380233 -0.40076455 -5.517143 0.40198556 0.0013813407 0.0025183079 -0.0444394 -10.389326 -45.09732 -7.6250043 4.081441 77.109116 -4.3070908 4.5597425 2.8394828 29.66392
6.7946043 67.25982 -34.363224 3.9927707 9.642751 5.920624 -5.586033 21.710018 1.7070744 3.7564173 -12.4770775 0.6301108 -5.6045756 17.62193 -5.665579 8.704585 -40.949986 -8.300401 0.014478675 0.0765219 0.028280979 -0.07754203 0.080643006 0.020523448 -0.037257586 0.028039763 -0.105833575 41.94128 9.713775 37.313625 -24.87838 -20.538088 51.740723 -1.1514024 27.36531 4.087023 -0.013912869 0.03082694 0.016718775 -0.08822626 0.019669488 0.065258905 0.016196266 0.09278709 0.030087825 7.7888656 5.444871 0.3908025 -0.02707838 -0.08043395 0.07605247 2.9550548 0.92316324 0.15889294 0.028086884 0.021519441 -0.12409751 10.24674 0.66573185 0.08058032 -0.03352094 -0.043027118 -0.002454942 2.3469355 -0.7159103 -0.23269683 0.005416561 -0.098494396 0.0072267638 -27.614088 56.202312 -67.66388 28.210918 -33.008125 -71.6783 30.202942 -78.30595 38.891354 0.038654454 0.08611572 -0.07422976 0.12471446 0.013045011 0.02486146 -0.014036694 -0.12135653 0.09591672 -7.7920523 5.478959 -0.39467895 0.056374736 -0.02650862 0.08607822 -2.932139 0.9410402 -0.09151813 0.07432773 -0.069502614 -0.03395662 -10.266269 0.6787257 -0.09522385 -0.013270957 -0.09918936 0.10126505 -2.2313247 -0.7569661 0.23591071 0.079784006 -0.018332236 0.07131092 -19.284683 -65.79848 -4.6132207 -0.32646957 41.30241 0.3950761 -0.71767694 -8.601875 -1.0010971 -0.018465275 0.019697754 -0.037884295 -8.494177 -46.187057 -3.5439305 3.6264987 76.50308 -4.20921 5.2856503 2.1530766 31.772743
7.0491023 67.64419 -36.862873 2.685713 5.967166 5.9051 -5.4736023 22.035753 2.393296 3.676738 -12.397759 0.8439095 -5.247562 17.32043 -4.6904383 8.744881 -41.184486 -6.3551865 0.03866686 0.08760296 0.020046314 -0.040017977 0.08576524 0.03760131 -0.0583969 0.023847962 -0.07819074 41.423004 11.867035 39.841316 -24.455336 -19.718563 50.379894 -0.82184726 26.48008 4.115632 -0.026075354 0.049725994 0.021666452 -0.09461973 0.018503511 0.06553019 0.008155339 0.103856586 0.030291423 7.7947965 5.4474206 0.40304288 -0.013996848 -0.06141994 0.0829583 2.9415123 0.9115001 0.18666855 0.028489167 0.030317994 -0.11983388 10.226925 0.669477 0.058875684 -0.043098036 -0.02138087 0.010062675 2.3376 -0.72970146 -0.2327314 0.0019238266 -0.115852974 0.017492674 -22.11441 52.876213 -74.567665 28.141502 -33.589245 -72.761734 24.34029 -76.10226 31.856798 0.031863622 0.11970625 -0.08917148 0.14133522 0.021716876 0.053283628 -0.013898393 -0.09746886 0.09441986 -7.7865424 5.47123 -0.40715158 0.03641987 -0.007208675 0.092116125 -2.927889 0.9369091 -0.08046799 0.07043363 -0.08256162 -0.019259563 -10.266952 0.6910123 -0.09055359 0.009272931 -0.10699593 0.10886483 -2.2236526 -0.77852476 0.24666183 0.07579581 -0.011054067 0.07659425 -19.69409 -67.16302 -13.887184 -0.5254975 43.908787 0.44817343 -0.8795989 -7.4531965 -2.9701617 -0.033209693 0.031742 -0.023490544 -5.2275143 -47.763 1.7704295 3.5989294 76.61977 -4.1298423 6.085826 0.97683 33.803722
7.3960605 67.55182 -39.164173 1.682658 2.704557 5.8528266 -5.99829 22.408972 3.266154 3.569433 -12.478379 1.0889219 -5.0750074 17.04532 -3.8420935 9.139322 -41.28189 -4.578955 0.057153367 0.082776405 0.020945646 -0.0075313034 0.086073704 0.04838216 -0.07818413 0.014085447 -0.053540293 40.062428 14.693197 42.377747 -24.097712 -19.230453 49.49467 -0.8365179 25.6728 3.8797112 -0.026361942 0.057939596 0.018717973 -0.09915182 0.005842122 0.07639469 -0.012438733 0.108708724 0.02364287 7.790938 5.4638333 0.41153046 0.013255797 -0.032358073 0.08092186 2.9378946 0.91028255 0.20075253 0.019176576 0.030081471 -0.11131304 10.205793 0.6703795 0.03820271 -0.050511487 -0.0066379406 0.022983106 2.3143644 -0.7431 -0.23733509 -0.010179233 -0.10699822 0.03493305 -14.776247 48.80547 -82.91738 28.256428 -34.958107 -75.17533 20.483524 -73.97765 27.714834 0.025476966 0.13041876 -0.07744081 0.14519073 0.01895081 0.066489734 -0.010951656 -0.082487606 0.08572871 -7.78563 5.4526553 -0.414541 0.020047229 0.012133772 0.084371865 -2.9209332 0.9424557 -0.056090813 0.04038122 -0.07477198 -0.003964713 -10.271389 0.703884 -0.087440155 0.02316108 -0.11636176 0.10749165 -2.2115269 -0.7912957 0.2541854 0.062143747 -0.0048866114 0.06526653 -21.669712 -68.31475 -23.009901 -0.7718599 48.866203 0.8080574 -1.3854514 -5.368507 -5.2530665 -0.046000578 0.04048552 -0.0005329352 -1.3285426 -49.60212 7.1186776 3.7508283 77.17819 -4.2737613 6.592237 0.20667514 35.032017
7.95554 66.376724 -41.37981 1.2217779 -0.67199236 5.6270375 -7.1002574 22.826258 4.0746775 3.5638847 -12.847923 1.2922027 -5.034622 16.830288 -3.093545 9.774537 -41.29512 -2.9577787 0.069937155 0.063623324 0.023796406 0.022408467 0.08101483 0.04791635 -0.08897937 -0.0031122025 -0.03172018 37.796543 18.258959 45.135506 -23.918911 -18.986874 49.03937 -0.8634247 24.598532 3.6501245 -0.012284884 0.054899488 0.012115334 -0.09681227 -0.019872908 0.09106332 -0.04330781 0.10620403 0.015069441 7.7733836 5.492777 0.41239893 0.048718724 0.0036977616 0.06973479 2.937522 0.91524416 0.20391576 0.004628241 0.022578334 -0.09751841 10.193296 0.6669622 0.024395287 -0.050214756 0.00072386715 0.035028525 2.277296 -0.7561923 -0.24342608 -0.030948926 -0.070787966 0.057052355 -6.934572 43.49524 -91.29434 28.454716 -37.07543 -79.02223 16.568295 -70.76758 24.143568 0.024986336 0.11979588 -0.042799074 0.13044652 0.003408757 0.059383877 -0.0013118082 -0.077386156 0.06548102 -7.7917714 5.4318357 -0.40956175 0.0069006584 0.028226748 0.063607894 -2.9154887 0.95821637 -0.025361245 -0.0062183347 -0.037756287 0.017154854 -10.271607 0.72312844 -0.08339554 0.030658063 -0.112669 0.088612415 -2.1980958 -0.79040974 0.25989774 0.04246309 0.009901807 0.038123593 -24.866089 -69.72142 -31.475546 -1.192552 56.42474 1.4674937 -2.0134969 -3.7737088 -7.114045 -0.051746428 0.04341563 0.031374846 3.0518813 -51.733643 12.972795 4.106346 78.46007 -4.6699715 6.676246 -0.09687518 35.345905
8.437466 65.56682 -43.649303 1.2350804 -3.7614436 5.269379 -8.435085 23.010448 4.6781898 3.488388 -13.233606 1.4307728 -5.0068316 16.610415 -2.338972 10.358375 -41.134693 -1.2567122 0.06911259 0.052329943 0.029558174 0.050655726 0.07646492 0.024481269 -0.082200706 -0.02898043 -0.02658777 35.350216 22.285221 48.18283 -23.68276 -18.826687 48.71604 -0.8712038 22.889471 3.235202 0.0102209 0.022664879 0.013379608 -0.10106444 -0.042828403 0.10783062 -0.06633319 0.09277435 -0.003141494 7.750728 5.509631 0.39495948 0.08220189 0.036971405 0.045848582 2.922131 0.92565876 0.18851481 -0.0023579488 0.038859125 -0.06696301 10.189485 0.6508895 0.022286631 -0.03588239 -0.0009769629 0.05916249 2.258221 -0.7851712 -0.22357012 -0.04785244 -0.039021406 0.08541415 -1.0259521 37.061047 -99.66244 28.362429 -39.595524 -83.37355 11.415491 -65.30079 18.192818 0.013680405 0.08102256 -0.0033625984 0.075449325 -0.034129605 0.049646355 0.0007842048 -0.0764795 0.029578112 -7.7861023 5.431308 -0.41774252 0.0036442177 0.028854195 0.03344427 -2.915824 0.9729991 -0.016159324 -0.054651763 5.4913005e-05 0.052763063 -10.265883 0.757506 -0.05748673 0.040136695 -0.10041289 0.048958365 -2.1890893 -0.77575177 0.26301253 0.03680713 0.028154133 0.011638149 -28.880692 -70.98074 -37.699783 -1.6221243 65.11307 1.7992367 -2.004704 -3.8563046 -7.3936515 -0.046946865 0.044132225 0.065318614 7.415675 -53.730247 19.577002 4.407356 79.83484 -5.781088 6.744855 -0.116745085 35.287388
